<svg xmlns="http://www.w3.org/2000/svg" viewBox="0 0 1125 2436"><defs><style>.cls-1{fill:#f9f8ef;}.cls-2{fill:#081440;}.cls-3{fill:#f1f1ea;}.cls-4{fill:#101b45;}.cls-5{fill:#17224b;}.cls-6{fill:#1f2950;}.cls-7{fill:#263156;}.cls-8{fill:#2e385b;}.cls-9{fill:#353f61;}.cls-10{fill:#3d4666;}.cls-11{fill:#444d6c;}.cls-12{fill:#4c5471;}.cls-13{fill:#535b77;}.cls-14{fill:#5b627c;}.cls-15{fill:#626a82;}.cls-16{fill:#6a7187;}.cls-17{fill:#71788d;}.cls-18{fill:#797f92;}.cls-19{fill:#818697;}.cls-20{fill:#888d9d;}.cls-21{fill:#9094a2;}.cls-22{fill:#979ba8;}.cls-23{fill:#9fa3ad;}.cls-24{fill:#a6aab3;}.cls-25{fill:#aeb1b8;}.cls-26{fill:#b5b8be;}.cls-27{fill:#bdbfc3;}.cls-28{fill:#c4c6c9;}.cls-29{fill:#cccdce;}.cls-30{fill:#d3d4d4;}.cls-31{fill:#dbdcd9;}.cls-32{fill:#e2e3df;}.cls-33{fill:#eaeae4;}</style></defs><g id="Layer_2" data-name="Layer 2"><g id="Layer_1-2" data-name="Layer 1"><rect class="cls-1" width="1125" height="2436"/><path class="cls-2" d="M282,1213c0,2-.56,3-1.69,3q-7.1,0-17.24-.63-9.72-.64-16.14-.64t-15.7.64q-9.74.63-16.82.63c-1.27,0-1.91-1-1.91-3,0-1.76.57-2.72,1.7-2.86q12.38-1.47,16.87-4.55t4.49-11.63v-1.69l-4.44-102.51-51,127.89c-.42,1.13-1.41,1.7-3,1.7s-2.57-.57-2.85-1.7l-48-122.81-7.61,97.51a25.7,25.7,0,0,0-.21,3.18q0,7.1,4.86,10.17t17.35,4.44c1,.14,1.48,1.11,1.48,2.91s-.64,2.91-1.91,2.91q-5.49,0-15-.63-8.86-.64-13.68-.64-5.25,0-14.35.64-8.77.63-13.54.63c-1,0-1.48-1-1.48-3,0-1.76.64-2.72,1.91-2.86q13.32-1.59,18.45-5t5.87-12.92l11-99.62c.07-1.27.1-2.4.1-3.38q0-6.88-4.86-10T97,1074.68c-1,0-1.48-1-1.48-2.91a3.52,3.52,0,0,1,.63-2c.43-.62.85-.93,1.27-.93q3.92,0,11.11.63,6.14.65,9,.64,3.7,0,10.58-.64,7.08-.63,11-.63l45.37,117.48,46.87-117.48c2.81,0,6.49.21,11.06.63q6.21.65,9.78.64a106.38,106.38,0,0,0,10.69-.64q6.45-.63,11.1-.63c1.27,0,1.91,1,1.91,2.91s-.57,2.91-1.7,2.91q-12.37,1.48-16.87,4.55t-4.49,11.64v1.8l4.86,99.62q.31,7.41,2.28,10.38t6.71,4.71a63.58,63.58,0,0,0,13.65,2.8C281.45,1210.32,282,1211.28,282,1213Z"/><path class="cls-2" d="M1042.81,1127.73c0,1.8-.57,2.77-1.69,2.91q-7.2.73-11.06,4.2t-8.51,13.67l-97.93,208.9q-8.36,17.34-19.47,17.35a12.39,12.39,0,0,1-8.62-2.91,9.6,9.6,0,0,1-3.22-7.46,10.75,10.75,0,0,1,2.89-7.77,10.27,10.27,0,0,1,7.75-3,11.26,11.26,0,0,1,5.22,1.59,7.41,7.41,0,0,0,2.76,1c2.34,0,53.1-105,56.27-112.85l13.21-28.56-24.66-66.22q-3.91-9.67-7.88-13.35t-10.74-4.52c-1.12-.14-1.69-1.11-1.69-2.91s.54-2.91,1.6-2.91a97,97,0,0,1,10,.63q6.62.65,11.62.64t12.22-.64c4.48-.42,8.16-.63,11.06-.63,1.12,0,1.69,1,1.69,2.91s-.57,2.77-1.69,2.91Q970.91,1132,970.9,1137q0,3.51,2.91,11.49l17.05,43.66,20.2-43.66q2.61-6,2.61-9.94,0-6.66-10.23-7.93c-1.13-.15-1.69-1.1-1.69-2.86,0-2,.56-3,1.69-3a87.38,87.38,0,0,1,9.91.63,81.56,81.56,0,0,0,9.71.64c1.45,0,3.82-.18,7.09-.53a106.06,106.06,0,0,1,10.91-.74C1042.23,1124.82,1042.81,1125.79,1042.81,1127.73Z"/><path class="cls-2" d="M380.81,1127.73c0,1.8-.57,2.77-1.69,2.91q-7.2.73-11.06,4.2t-8.51,13.67l-97.93,208.9q-8.35,17.34-19.47,17.35a12.39,12.39,0,0,1-8.62-2.91,9.6,9.6,0,0,1-3.22-7.46,10.75,10.75,0,0,1,2.89-7.77,10.27,10.27,0,0,1,7.75-3,11.26,11.26,0,0,1,5.22,1.59,7.41,7.41,0,0,0,2.76,1c2.34,0,53.1-105,56.27-112.85l13.21-28.56-24.66-66.22q-3.92-9.67-7.88-13.35t-10.74-4.52c-1.12-.14-1.69-1.11-1.69-2.91s.54-2.91,1.6-2.91a97,97,0,0,1,10,.63q6.62.65,11.62.64t12.22-.64c4.48-.42,8.16-.63,11.06-.63,1.12,0,1.69,1,1.69,2.91s-.57,2.77-1.69,2.91Q308.9,1132,308.9,1137q0,3.51,2.91,11.49l17.05,43.66,20.2-43.66q2.61-6,2.61-9.94,0-6.66-10.23-7.93c-1.13-.15-1.69-1.1-1.69-2.86,0-2,.56-3,1.69-3a87.38,87.38,0,0,1,9.91.63,81.56,81.56,0,0,0,9.71.64c1.45,0,3.82-.18,7.09-.53a106.06,106.06,0,0,1,10.91-.74C380.23,1124.82,380.81,1125.79,380.81,1127.73Z"/><path class="cls-2" d="M504.47,1177.07a326.1,326.1,0,0,0-7.83,38.93q-40.51-1.27-57.65-1.27-16.94,0-56.91,1.27c-1.13,0-1.7-1-1.7-3,0-1.76.57-2.72,1.7-2.86q12.8-1.48,17.4-4.76t4.6-13.13v-99.62q0-7.41-1.85-10.42c-1.24-2-3.4-3.6-6.51-4.77a61.48,61.48,0,0,0-13.64-2.8c-1.13,0-1.7-1-1.7-2.91s.57-2.91,1.7-2.91q7.08,0,16.92.63,9.42.65,15.87.64t15.76-.64q9.74-.63,16.82-.63c1.13,0,1.69,1,1.69,2.91s-.56,2.91-1.69,2.91a61.27,61.27,0,0,0-13.54,2.8q-4.65,1.76-6.45,4.71t-1.8,10.48v102.8q0,12.49,12.27,12.49h20.94q13,0,22-6.93t17.77-25.86c.28-.56,1-.85,2-.85a4.5,4.5,0,0,1,2.59.85A2.36,2.36,0,0,1,504.47,1177.07Z"/><path class="cls-2" d="M561.48,1213c0,2-.56,3-1.69,3-2.89,0-6.6-.21-11.11-.63q-7.59-.64-12.74-.64t-12.65.64q-6.66.63-11,.63c-1.13,0-1.69-1-1.69-3,0-1.76.56-2.72,1.69-2.86q9-1.15,11.59-4.33t2.59-13.52v-39.08q0-8.45-2.17-11.09t-9.47-3.49c-1.13,0-1.69-.93-1.69-2.8s.56-2.59,1.69-2.59A111.41,111.41,0,0,0,533,1127.2q7.06-3.23,8.86-5.34a3,3,0,0,1,2.32-1.27c2,0,3,.56,3,1.69q-1.68,23.7-1.69,36.81v33.22q0,10.37,2.59,13.54t11.8,4.33C560.92,1210.32,561.48,1211.28,561.48,1213Zm-14.81-127.89a10.64,10.64,0,0,1-3.22,7.72,11,11,0,0,1-18.78-7.72,11,11,0,0,1,18.78-7.83A10.56,10.56,0,0,1,546.67,1085.15Z"/><path class="cls-2" d="M672,1169.88q0,19.47-13.77,34.38t-31.87,14.91a47.1,47.1,0,0,1-19.49-4.23,28.13,28.13,0,0,0-11.43-3q-8,0-10.49,6.77c-.35.85-1.24,1.27-2.65,1.27-1.83,0-2.75-.56-2.75-1.69q.84-8.88.85-21.35V1093.92q0-8.57-2.17-11.21t-9.47-3.38c-1.13,0-1.69-.86-1.69-2.59,0-2,.56-3,1.68-3q18.78-4.86,26.69-11.21a4.68,4.68,0,0,1,2.63-1.27c2,0,2.95.57,2.95,1.7q-1.69,23.05-1.69,37v31.63a33.24,33.24,0,0,1,24.4-9.95q21.54,0,34.9,13T672,1169.88Zm-21.37.9q0-19.48-7.73-30.5t-21.73-11q-7.53,0-14.68,5.66t-7.16,11.27v48.94q0,5.63,8.53,11.4t15.85,5.77q12.72,0,19.82-11.33T650.65,1170.78Z"/><path class="cls-2" d="M759.08,1132a10.57,10.57,0,0,1-2.59,7.19,8.07,8.07,0,0,1-6.3,3,16.36,16.36,0,0,1-9.2-3.07c-2.4-1.62-4.48-2.44-6.24-2.44q-6.88,0-14.18,8v47.61q0,9.2,3.18,12.85t13.54,5c1.12.14,1.69,1.1,1.69,2.86,0,2-.57,3-1.69,3-2.9,0-7-.21-12.27-.63q-8.76-.64-13.91-.64t-12.75.64c-4.51.42-8.22.63-11.11.63-1.13,0-1.69-1-1.69-3,0-1.76.56-2.72,1.69-2.86q9.21-1.15,11.8-4.33t2.59-13.52v-39.08q0-8.45-2.17-11.09t-9.68-3.49c-1.13,0-1.69-.93-1.69-2.8s.56-2.59,1.69-2.59a94.84,94.84,0,0,0,17.26-5.87q6.8-3.23,8.9-5.55a3.61,3.61,0,0,1,2.52-1.27c2,0,2.95.56,2.95,1.69l-.85,13.33q8.46-7.83,14.55-11a25.93,25.93,0,0,1,12.11-3.18,12,12,0,0,1,8.36,3.18A9.73,9.73,0,0,1,759.08,1132Z"/><path class="cls-2" d="M834.51,1218.33a18,18,0,0,1-10.25-2.91,14.46,14.46,0,0,1-6-7.88q-11.31,11.63-29.62,11.63-9.51,0-15.54-5.87a19.59,19.59,0,0,1-6-14.65q0-21.68,51.4-35.12l.64-16.5v-.53q0-7.61-3.76-12.11a12.35,12.35,0,0,0-10-4.5,18.08,18.08,0,0,0-10.58,3q-4.33,3-4.44,7.56-.1,6.78-3.55,10.58a11.72,11.72,0,0,1-9.15,3.81,7.67,7.67,0,0,1-5.5-2,7.09,7.09,0,0,1-2.11-5.4q0-8.13,14.81-17.08t27.5-8.94q11.43,0,18.51,6.77t7.09,18.2v1.27l-1.59,47.81v.74q0,11.1,7.2,11.11,3.48,0,8.14-4.23l.74-.22a2,2,0,0,1,1.59,1.11,4.28,4.28,0,0,1,.74,2.38q0,3.08-6.4,7.52A23.9,23.9,0,0,1,834.51,1218.33Zm-16.2-47.71q-30.78,7-30.78,23.13,0,15.06,11.6,15.06a23.76,23.76,0,0,0,11-2.81q5.43-2.82,7.33-7Z"/><path class="cls-2" d="M932.13,1132a10.52,10.52,0,0,1-2.59,7.19,8,8,0,0,1-6.29,3,16.39,16.39,0,0,1-9.21-3.07c-2.39-1.62-4.47-2.44-6.24-2.44q-6.87,0-14.17,8v47.61q0,9.2,3.17,12.85t13.54,5c1.13.14,1.7,1.1,1.7,2.86,0,2-.57,3-1.7,3q-4.33,0-12.27-.63-8.76-.64-13.91-.64t-12.74.64q-6.78.63-11.11.63c-1.13,0-1.69-1-1.69-3,0-1.76.56-2.72,1.69-2.86q9.2-1.15,11.79-4.33t2.59-13.52v-39.08q0-8.45-2.16-11.09t-9.68-3.49c-1.13,0-1.7-.93-1.7-2.8s.57-2.59,1.7-2.59a95.11,95.11,0,0,0,17.26-5.87q6.79-3.23,8.89-5.55a3.64,3.64,0,0,1,2.53-1.27c2,0,3,.56,3,1.69l-.85,13.33q8.46-7.83,14.54-11a26,26,0,0,1,12.12-3.18,12,12,0,0,1,8.35,3.18A9.7,9.7,0,0,1,932.13,1132Z"/><rect class="cls-3" x="917.84" y="1243.97" width="17" height="96" rx="1.29" transform="translate(1354.93 2822.85) rotate(-160)"/><rect class="cls-2" x="313.84" y="1243.53" width="17" height="96" rx="1.29" transform="matrix(0.96, 0.29, -0.29, 0.96, 386.62, -38.06)"/><rect class="cls-4" x="343.84" y="1243.62" width="17" height="96" rx="1.29"/><rect class="cls-5" x="361.84" y="1243.62" width="17" height="96" rx="1.29"/><rect class="cls-6" x="379.84" y="1243.62" width="17" height="96" rx="1.29"/><rect class="cls-7" x="397.84" y="1243.62" width="17" height="96" rx="1.29"/><rect class="cls-8" x="415.84" y="1243.62" width="17" height="96" rx="1.29"/><rect class="cls-9" x="433.84" y="1243.62" width="17" height="96" rx="1.29"/><rect class="cls-10" x="451.84" y="1243.62" width="17" height="96" rx="1.29"/><rect class="cls-11" x="469.84" y="1243.62" width="17" height="96" rx="1.29"/><rect class="cls-12" x="487.84" y="1243.62" width="17" height="96" rx="1.29"/><rect class="cls-13" x="505.84" y="1243.62" width="17" height="96" rx="1.29"/><rect class="cls-14" x="523.84" y="1243.62" width="17" height="96" rx="1.29"/><rect class="cls-15" x="541.84" y="1243.62" width="17" height="96" rx="1.29"/><rect class="cls-16" x="559.84" y="1243.62" width="17" height="96" rx="1.29"/><rect class="cls-17" x="577.84" y="1243.62" width="17" height="96" rx="1.29"/><rect class="cls-18" x="595.84" y="1243.62" width="17" height="96" rx="1.29"/><rect class="cls-19" x="613.84" y="1243.62" width="17" height="96" rx="1.29"/><rect class="cls-20" x="631.84" y="1243.62" width="17" height="96" rx="1.29"/><rect class="cls-21" x="649.84" y="1243.62" width="17" height="96" rx="1.29"/><rect class="cls-22" x="667.84" y="1243.62" width="17" height="96" rx="1.29"/><rect class="cls-23" x="685.84" y="1243.62" width="17" height="96" rx="1.29"/><rect class="cls-24" x="703.84" y="1243.62" width="17" height="96" rx="1.29"/><rect class="cls-25" x="721.84" y="1243.62" width="17" height="96" rx="1.29"/><rect class="cls-26" x="739.84" y="1243.62" width="17" height="96" rx="1.29"/><rect class="cls-27" x="757.84" y="1243.62" width="17" height="96" rx="1.29"/><rect class="cls-28" x="775.84" y="1243.62" width="17" height="96" rx="1.29"/><rect class="cls-29" x="793.84" y="1243.62" width="17" height="96" rx="1.29"/><rect class="cls-30" x="811.84" y="1243.62" width="17" height="96" rx="1.29"/><rect class="cls-31" x="829.84" y="1243.62" width="17" height="96" rx="1.29"/><rect class="cls-32" x="847.84" y="1243.62" width="17" height="96" rx="1.29"/><rect class="cls-33" x="869.84" y="1243.17" width="17" height="96" rx="1.29" transform="translate(1640.8 2653.97) rotate(-175)"/><rect class="cls-3" x="891.84" y="1243.08" width="17" height="96" rx="1.29" transform="translate(1562.8 2718.88) rotate(-170)"/></g></g></svg>